<?xml version="1.0" standalone="no"?><!DOCTYPE svg PUBLIC "-//W3C//DTD SVG 1.1//EN" "http://www.w3.org/Graphics/SVG/1.1/DTD/svg11.dtd"><svg t="1515571829352" class="icon" style="" viewBox="0 0 1024 1024" version="1.1" xmlns="http://www.w3.org/2000/svg" p-id="3420" xmlns:xlink="http://www.w3.org/1999/xlink" width="250" height="250"><defs><style type="text/css"></style></defs><path d="M784.267965 916.479392H355.15857c-42.448747 0-76.748307-34.42119-76.748307-76.748308V370.605535c0-42.448747 34.42119-76.748307 76.748307-76.748307h429.109395c42.448747 0 76.748307 34.42119 76.748308 76.748307v469.125549c0 42.448747-34.299561 76.748307-76.748308 76.748308zM422.419765 733.426773c4.743556 3.892149 10.581779 5.108445 16.541632 5.108445h292.88419c5.959853 0 8.149186-1.581185 11.919706-4.743556 2.919112-2.554223 4.135408-16.784891 0.851407-20.190522-4.257038-4.378667-6.81126-6.324742-12.771113-6.324741H438.839767c-5.959853 0-13.136002 2.189334-17.393039 6.568001-4.257038 4.257038-2.919112 16.298373 0.973037 19.582373z m321.710417-69.693788c-4.257038-4.378667-6.081482-6.081482-10.58178-6.446371l-2.919111-0.12163c-4.135408-30.285782-16.784891-65.55838-36.367265-88.789643-19.582373-23.231263-43.543414-38.191709-71.883121-46.705784v-0.364889c0.486519-2.675852 0.851408-4.621927 0.851407-5.959853 0-12.527854-4.257038-23.109633-12.771113-31.745338-8.514075-8.635705-18.852595-13.014372-30.89393-13.014372-12.162965 0-22.379855 4.378667-30.772301 13.014372-8.392446 8.635705-12.527854 19.217484-12.527853 31.745338 0 1.337926 0.12163 3.52726 0.364889 6.324742-28.339708 8.514075-52.300748 23.474522-71.883122 46.705784-19.582373 23.231263-32.110227 62.15275-36.245635 92.438532-2.797482 0.608148-5.838223 1.702815-7.176149 3.040742-8.149186 6.81126-5.351704 18.001188-0.12163 22.014966 4.865186 3.648889 11.676446 5.473334 17.51467 5.473334h292.88419c5.959853 0 8.149186-2.189334 12.406224-6.568001 4.378667-4.621927 4.378667-16.663262 0.12163-21.041929z m-154.104763-145.955577c-3.648889-0.243259-7.05452-0.364889-10.46015-0.364889s-6.81126 0.12163-10.46015 0.364889c-3.648889 0.243259-7.176149 0.608148-10.825038 1.216297l-0.364889-0.364889v-1.216297c0-6.081482 2.067704-13.62252 6.324741-18.001187 4.257038-4.378667 9.365483-6.568001 15.203706-6.568001 5.959853 0 11.068298 2.189334 15.203706 6.568001 4.257038 4.378667 6.446371 11.919705 6.446372 18.001187v1.216297l-0.364889 0.364889c-3.52726-0.608148-7.176149-0.973037-10.703409-1.216297zM564.969711 574.091935c0 1.946074-0.364889 3.648889-1.216296 5.230075-0.729778 1.581185-1.824445 2.919112-3.284001 4.013778-1.459556 1.094667-2.919112 1.824445-4.500297 2.067704-6.93289 2.067704-13.500891 4.986816-19.460743 8.635705-6.081482 3.52726-11.554816 7.784297-16.663262 12.771113-4.986816 4.986816-9.365483 10.33852-12.892742 16.176743-0.486519 1.337926-1.337926 2.554223-2.310964 3.52726-0.973037 1.094667-2.189334 1.824445-3.527259 2.432593-1.337926 0.486519-2.675852 0.851408-4.257038 0.851407-3.162371 0-5.716593-1.094667-7.662668-3.284-2.067704-2.067704-3.040741-4.743556-3.040741-7.905927 0-2.432593 0.608148-4.500297 1.946074-6.446372 6.93289-11.676446 15.811854-21.771707 26.515263-30.285782s22.623114-14.595558 35.759117-18.366076c0.486519-0.243259 1.094667-0.364889 1.581185-0.364889 0.729778-0.243259 1.459556-0.364889 1.946074-0.364889 3.040741 0 5.716593 1.094667 7.905928 3.40563 2.067704 1.946074 3.162371 4.621927 3.16237 7.905927zM315.993823 255.543889c-42.935265 0-77.721345 34.786079-77.721344 77.721344v468.395772H210.784179c-26.393633 0-47.922081-21.406818-47.922081-47.922081V225.258107c0-26.393633 21.406818-47.922081 47.922081-47.922081h484.815773c26.393633 0 47.922081 21.406818 47.922081 47.922081v30.407411c-0.729778 0-1.337926-0.12163-2.067704-0.121629H315.993823z" p-id="3421"></path></svg>