<?xml version="1.0" standalone="no"?><!DOCTYPE svg PUBLIC "-//W3C//DTD SVG 1.1//EN" "http://www.w3.org/Graphics/SVG/1.1/DTD/svg11.dtd"><svg t="1515570224472" class="icon" style="" viewBox="0 0 1024 1024" version="1.1" xmlns="http://www.w3.org/2000/svg" p-id="1211" xmlns:xlink="http://www.w3.org/1999/xlink" width="200" height="200"><defs><style type="text/css"></style></defs><path d="M614.4 0H409.6C184.32 0 0 184.32 0 409.6v204.8c0 225.28 184.32 409.6 409.6 409.6h204.8c225.28 0 409.6-184.32 409.6-409.6V409.6C1024 184.32 839.68 0 614.4 0z m188.416 647.168L512 825.344l-290.816-178.176v-45.056L512 780.288l290.816-178.176v45.056z m0-135.168L512 690.176 221.184 512v-45.056L512 647.168l290.816-178.176V512zM512 557.056l-290.816-178.176L512 198.656l290.816 178.176L512 557.056z" p-id="1212"></path></svg>