<?xml version="1.0" standalone="no"?><!DOCTYPE svg PUBLIC "-//W3C//DTD SVG 1.1//EN" "http://www.w3.org/Graphics/SVG/1.1/DTD/svg11.dtd"><svg t="1515569365808" class="icon" style="" viewBox="0 0 1027 1024" version="1.1" xmlns="http://www.w3.org/2000/svg" p-id="817" xmlns:xlink="http://www.w3.org/1999/xlink" width="200.5859375" height="200"><defs><style type="text/css"></style></defs><path d="M69.961076 745.658182h906.193455c18.269091 0 25.088-6.749091 38.260364-20.014546 13.102545-13.474909 13.102545-50.478545 0-63.813818-13.149091-13.544727-18.920727-18.478545-32.67491-19.851636l-9.122909-0.558546c-12.8-92.625455-51.781818-174.196364-112.384-245.341091-60.509091-71.005091-134.679273-119.575273-222.347636-145.570909v-1.256727c1.582545-8.192 2.466909-14.219636 2.466909-18.292364 0-38.237091-13.172364-70.469818-39.447273-96.884363-26.274909-26.344727-58.158545-39.610182-95.604363-39.610182-37.515636 0-69.143273 13.218909-95.069091 39.610182-25.856 26.414545-38.772364 58.693818-38.842182 96.884363 0 4.072727 0.418909 10.612364 1.186909 19.479273-87.621818 26.018909-161.768727 74.612364-222.277818 145.570909-60.509091 71.098182-99.374545 163.770182-112.128 256.418909 0 0 20.666182-1.908364 11.566545-1.722181-9.704727 0.325818-27.578182 4.980364-33.605818 11.124363-25.227636 20.968727-16.500364 54.946909-0.418909 67.118546 14.941091 11.240727 35.933091 16.709818 54.248727 16.709818z m368.290909-507.834182c0-18.688 6.586182-41.518545 19.735273-54.900364s28.928-20.061091 47.197091-20.107636c18.338909 0 34.117818 6.725818 47.173818 20.107636 13.172364 13.405091 19.735273 36.212364 19.735273 54.900364v3.700364l-1.163636 1.140363a457.751273 457.751273 0 0 0-65.792-4.840727 469.108364 469.108364 0 0 0-65.698909 4.840727l-1.140364-1.140363v-3.700364h-0.046546z m-216.273454 291.84v-0.093091a339.223273 339.223273 0 0 1 81.873454-92.625454 314.484364 314.484364 0 0 1 110.545455-56.064 10.705455 10.705455 0 0 1 4.817455-1.140364 19.665455 19.665455 0 0 1 5.957818-1.186909c9.565091 0 17.710545 3.421091 24.482909 10.379636 6.795636 6.865455 10.24 15.220364 10.24 24.925091 0 5.771636-1.28 11.031273-3.630546 15.872a32.744727 32.744727 0 0 1-10.216727 12.218182 31.650909 31.650909 0 0 1-13.707636 6.167273c-21.480727 6.353455-41.611636 15.220364-60.346182 26.205091a269.265455 269.265455 0 0 0-51.386182 38.912 253.998545 253.998545 0 0 0-40.052364 49.431272c-1.582545 4.026182-3.956364 7.726545-7.168 10.891637a30.487273 30.487273 0 0 1-10.752 7.354181 35.141818 35.141818 0 0 1-13.172363 2.490182c-9.588364 0-17.524364-3.281455-23.831273-9.867636-6.446545-6.306909-9.565091-14.592-9.565091-24.273455a32.325818 32.325818 0 0 1 5.911273-19.595636zM976.154531 784.756364H69.984349c-18.338909 0-40.727273 6.725818-53.829818 20.130909-13.172364 13.288727-9.053091 45.102545 2.722909 54.900363 14.475636 11.892364 32.861091 15.592727 51.130182 15.592728h906.170182c18.269091 0 25.367273-4.794182 36.957091-14.685091 9.146182-7.68 12.893091-46.056727 2.56-56.715637-13.195636-13.451636-21.341091-19.223273-39.540364-19.223272z m0 0" p-id="818"></path></svg>